# xmcd
#
# Track frame offsets: 
#        150
#        14821
#        28740
#        55830
#        68944
#
# Disc length: 1226 seconds
#
# Revision: 0
# Processed by: cddbd v1.4PL0 Copyright (c) Steve Scherf et al.
# Submitted via: ExactAudioCopy v0.90b4
#
DISCID=4304c805
DTITLE=Intersection - Intersection Demo Tape
DYEAR=1997
DGENRE=Blues
TTITLE0=Funk'n A
TTITLE1=I Like Your Shoes
TTITLE2=Sure Enough To Find
TTITLE3=Tore Down
TTITLE4=The Grand Emir
EXTD=
EXTT0=
EXTT1=
EXTT2=
EXTT3=
EXTT4=
PLAYORDER=
